<svg xmlns="http://www.w3.org/2000/svg" viewBox="0 0 689 81">
  <g fill="none" fill-rule="nonzero">
    <path fill="#000" d="M657.07 62.5V18.07h12.42c3.64 0 6.9.83 9.8 2.48a17.2 17.2 0 016.76 7.13 22.44 22.44 0 012.42 10.56v4.09c0 3.97-.8 7.48-2.4 10.56a17.15 17.15 0 01-6.8 7.1 19.9 19.9 0 01-10.05 2.51h-12.15zm3.75-41.23v38.06h8.43c4.68 0 8.43-1.56 11.26-4.66s4.24-7.3 4.24-12.59v-3.9c0-5.1-1.4-9.2-4.18-12.27-2.79-3.07-6.46-4.62-11.02-4.64h-8.73zM599.43 59.33h20.35a1.59 1.59 0 010 3.17h-24.14V19.96a1.9 1.9 0 113.79 0v39.37zM544.07 44h-12.9v16.6a1.9 1.9 0 11-3.8 0V18.08h14.44c4.74 0 8.45 1.15 11.11 3.44 2.67 2.3 4 5.52 4 9.65 0 2.85-.84 5.36-2.5 7.54a12.8 12.8 0 01-6.72 4.51l10.27 17.47a1.2 1.2 0 01-1.05 1.82h-.67a2.5 2.5 0 01-2.16-1.24L544.07 44zm-12.9-3.2h11.5c3.15 0 5.68-.9 7.6-2.68a9.1 9.1 0 002.86-6.96c0-3.13-1-5.57-2.99-7.3-1.99-1.72-4.79-2.59-8.39-2.59h-10.59V40.8zM380.35 50.5l1.37 6.9 1.68-6.59 9.17-31.12a2.26 2.26 0 014.34 0l9.04 31.12 1.65 6.65 1.47-6.95 7.56-30.58a2.46 2.46 0 012.39-1.86 1.5 1.5 0 011.44 1.86L410 60.76a2.32 2.32 0 01-2.24 1.74c-1.07 0-2-.7-2.3-1.73l-9.58-33.03-1.13-4.4-1.1 4.4-9.8 33.03a2.41 2.41 0 01-2.3 1.73 2.32 2.32 0 01-2.26-1.74l-10.43-40.83a1.5 1.5 0 011.45-1.86c1.13 0 2.12.77 2.39 1.86l7.65 30.58zM290.48 42.7c0 4.08-.7 7.67-2.12 10.77a16.19 16.19 0 01-6.06 7.14 16.59 16.59 0 01-9.09 2.5c-5.19 0-9.38-1.86-12.57-5.57-3.2-3.71-4.8-8.72-4.8-15.03v-4.58c0-4.05.72-7.63 2.16-10.75a16.43 16.43 0 016.09-7.2 16.46 16.46 0 019.06-2.52c3.42 0 6.43.82 9.05 2.47a16.24 16.24 0 016.06 6.99 25.15 25.15 0 012.22 10.46v5.31zm-3.75-4.83c0-5.35-1.21-9.54-3.63-12.57-2.42-3.03-5.74-4.55-9.95-4.55-4.13 0-7.42 1.52-9.87 4.56-2.45 3.05-3.68 7.3-3.68 12.75v4.63c0 5.27 1.22 9.45 3.66 12.53 2.44 3.08 5.76 4.62 9.95 4.62 4.25 0 7.57-1.52 9.95-4.56 2.38-3.04 3.57-7.28 3.57-12.7v-4.7zM201.99 59.33h20.35a1.59 1.59 0 110 3.17H198.2V19.96a1.9 1.9 0 113.79 0v39.37zM140.56 59.33h20.35a1.59 1.59 0 010 3.17h-24.14V19.96a1.9 1.9 0 013.79 0v39.37zM95.67 41.2h-19.2v18.13h22.31a1.59 1.59 0 110 3.17H72.72V18.07h25.9a1.6 1.6 0 110 3.2H76.46v16.75h19.2a1.59 1.59 0 010 3.18zM31.04 62.5a1.9 1.9 0 01-1.9-1.9V41.2H3.75v19.42a1.88 1.88 0 11-3.75 0V19.94a1.88 1.88 0 113.75 0v18.08h25.4V19.96a1.9 1.9 0 113.78 0V60.6a1.9 1.9 0 01-1.9 1.89z"/>
    <g transform="translate(437.5)">
      <path fill="#000" d="M46.14 44.2l8.23 4.84a1.58 1.58 0 11-1.58 2.73l-8.29-4.76-.63-.37a4.17 4.17 0 00-6.29 3.62V60.55a1.58 1.58 0 01-1.61 1.62c-.87-.01-1.57-.72-1.57-1.59V50.26a4.18 4.18 0 00-6.26-3.6l-.62.36-8.3 4.79a1.58 1.58 0 11-1.6-2.74l8.3-4.79.67-.39a4.17 4.17 0 000-7.22l-.67-.38-8.3-4.8a1.56 1.56 0 01-.57-2.16 1.57 1.57 0 012.16-.57l8.3 4.8.63.35a4.17 4.17 0 006.26-3.61V19.88a1.57 1.57 0 013.14 0V30.2a4.18 4.18 0 006.26 3.62l.62-.37 8.3-4.8a1.58 1.58 0 111.59 2.74l-8.23 4.8-.63.37a4.17 4.17 0 000 7.22l.69.44z"/>
      <circle cx="35.95" cy="8.04" r="8.04" fill="#0093BC"/>
      <circle cx="35.95" cy="72.43" r="8.04" fill="#F1641E"/>
      <circle cx="8.05" cy="24.14" r="8.04" fill="#35BD42"/>
      <circle cx="8.04" cy="56.33" r="8.04" fill="#FFC444"/>
      <circle cx="63.85" cy="24.14" r="8.04" fill="#9F3B8C"/>
      <circle cx="63.85" cy="56.33" r="8.04" fill="#D22A5E"/>
    </g>
  </g>
</svg>
